<svg width="32" height="32" viewBox="0 0 32 32" fill="none" xmlns="http://www.w3.org/2000/svg">
<path d="M4.68671 19.6866L1 15.9998L4.68671 12.3131V15.2929H13.293L14 15.9998L13.2927 16.7072H4.68671V19.6866Z" fill="#932279"/>
<path d="M17.4146 13.5854V14.5859H18.4141L24.5001 8.49984L26.6069 10.6066V5.39355H21.3937L23.5 7.49998L17.4146 13.5854Z" fill="#932279"/>
<path d="M20.3937 5.39355L22.5001 7.49998L17.4146 12.5853V5.39355H20.3937Z" fill="#932279"/>
<path d="M26.6069 11.6068L24.5001 9.49996L19.414 14.5859H26.6069V11.6068Z" fill="#932279"/>
<path d="M12.5858 14.5859H5.39355V11.6061L7.49972 9.49996L12.5858 14.5859Z" fill="#9CCD2A"/>
<path d="M13.5861 14.5859L7.49984 8.49984L5.39355 10.6061V5.39355H10.6062L8.49984 7.49998L14.5859 13.586V14.5859H13.5861Z" fill="#9CCD2A"/>
<path d="M15.2931 18.7068L15.9998 18.0001L16.7074 18.7076V27.314H19.6858L15.9998 30.9998L12.314 27.314H15.2931V18.7068Z" fill="#9CCD2A"/>
<path d="M11.6063 5.39355H14.5859V12.5859L9.49995 7.49998L11.6063 5.39355Z" fill="#9CCD2A"/>
<path d="M5.39355 21.3936L7.49997 23.5L13.5858 17.4141H14.5859V18.4139L8.49984 24.4999L10.6064 26.6064H5.39355V21.3936Z" fill="#262577"/>
<path d="M5.39355 20.3935L7.49997 22.4999L12.5856 17.4141H5.39355V20.3935Z" fill="#262577"/>
<path d="M27.314 12.314L30.9998 15.9998L27.314 19.6858V16.7071H18.7071L17.9998 15.9998L18.7068 15.2928H27.314V12.314Z" fill="#262577"/>
<path d="M14.5859 19.414L9.49995 24.4999L11.6065 26.6064H14.5859V19.414Z" fill="#262577"/>
<path d="M16.7074 13.2925L15.9998 14L15.2931 13.2933V4.68646H12.3135L15.9998 1L19.6862 4.68646H16.7074V13.2925Z" fill="#EFA724"/>
<path d="M19.4141 17.4143H26.6067V20.3933L24.4999 22.5001L19.4141 17.4143Z" fill="#EFA724"/>
<path d="M18.4142 17.4143L24.4999 23.5003L26.6067 21.3934V26.6066H21.3933L23.4998 24.5001L17.4144 18.4147V17.4143H18.4142Z" fill="#EFA724"/>
<path d="M20.3933 26.6066H17.4144V19.4148L22.4999 24.5001L20.3933 26.6066Z" fill="#EFA724"/>
</svg>
