<svg width="32" height="32" viewBox="0 0 32 32" fill="none" xmlns="http://www.w3.org/2000/svg">
<path fill-rule="evenodd" clip-rule="evenodd" d="M18.8876 12.3383C18.1863 12.313 17.5215 12.5608 17.0134 13.0373C16.5053 13.5138 16.2057 14.1593 16.1845 14.8583C16.1358 16.3027 17.2668 17.5179 18.7079 17.571C19.4087 17.5922 20.0768 17.3445 20.5879 16.8679C21.0982 16.3892 21.3916 15.7433 21.4138 15.0469C21.4626 13.6029 20.332 12.3895 18.8876 12.3383ZM19.3154 15.1997C18.6736 15.1997 18.1551 14.8524 18.1551 14.4268C18.1551 13.997 18.6736 13.6516 19.3154 13.6516C19.9571 13.6516 20.4771 13.997 20.4771 14.4268C20.4771 14.8524 19.9568 15.1997 19.3154 15.1997Z" fill="#73BA25"/>
<path fill-rule="evenodd" clip-rule="evenodd" d="M30.4001 16.0001C30.4001 23.953 23.953 30.4001 16.0001 30.4001C8.04724 30.4001 1.6001 23.953 1.6001 16.0001C1.6001 8.04718 8.04724 1.6001 16.0001 1.6001C23.953 1.6001 30.4001 8.04718 30.4001 16.0001ZM28.706 16.0001C28.706 23.0174 23.0174 28.706 16.0001 28.706C12.3932 28.706 9.13729 27.203 6.82452 24.7893C7.75585 24.3942 9.10523 24.5465 10.713 24.728L10.7192 24.7288C11.6255 24.8346 12.6573 24.9531 13.7255 24.9769C16.708 24.9958 19.9204 24.445 21.9005 23.5789C23.1814 23.0221 23.9989 22.6515 24.5111 22.1857C24.6953 22.0331 24.7907 21.7854 24.8903 21.5187L24.9601 21.3427C25.0429 21.1266 25.1647 20.6712 25.2183 20.4216L25.2208 20.4095C25.2414 20.3037 25.2617 20.2014 25.174 20.1337C25.0909 20.0695 24.8999 20.1846 24.8999 20.1846C24.0305 20.7079 21.8571 21.6989 19.825 21.7412C17.302 21.7921 12.19 19.1871 11.6604 18.912C11.3059 18.068 10.9519 17.2237 10.5923 16.3819C14.2494 18.7915 17.2828 20.1233 19.6047 20.3287C22.12 20.5528 24.0955 19.2237 25.0061 18.6112L25.0795 18.5619C25.1941 18.4858 25.3082 18.4006 25.4138 18.3188C25.4224 18.3121 25.4361 18.3004 25.448 18.2863C25.4569 18.2758 25.4647 18.264 25.4685 18.2519C25.4693 18.2492 25.4699 18.2465 25.4704 18.2437C25.4712 18.2391 25.4713 18.2345 25.4706 18.23C25.3256 17.3239 23.9757 12.9297 22.954 11.873C22.9048 11.8227 22.8573 11.7726 22.8101 11.7226C22.5866 11.4865 22.3673 11.2548 21.9906 11.0344C18.2945 8.88049 9.52545 7.58069 9.11464 7.52119C9.11464 7.52119 9.10823 7.51984 9.09872 7.51994C9.0922 7.52 9.08424 7.52072 9.07597 7.52299C9.06553 7.52584 9.05446 7.53111 9.04485 7.54052C9.04123 7.54409 9.03802 7.54817 9.03533 7.55252C9.03171 7.55831 9.02882 7.56456 9.02655 7.57066C9.02417 7.57687 9.02251 7.58292 9.02127 7.58809C9.0191 7.59739 9.01848 7.60401 9.01848 7.60401L9.0009 8.54356C8.9918 9.02148 8.98208 9.52292 8.9795 9.6241C8.62411 9.50472 7.38485 9.10161 5.63779 8.64557C7.94053 5.4069 11.7235 3.29422 16.0001 3.29422C23.0174 3.29422 28.706 8.98281 28.706 16.0001ZM15.039 14.8523C15.0761 13.8507 15.4955 12.921 16.2279 12.2392C16.9607 11.5551 17.9166 11.2015 18.919 11.2334C20.9859 11.3074 22.6101 13.0522 22.5392 15.1167C22.5002 16.1184 22.0808 17.0481 21.3503 17.7278C20.6175 18.4161 19.6637 18.7696 18.6568 18.7358C16.5922 18.6597 14.9698 16.9189 15.039 14.8523Z" fill="#73BA25"/>
</svg>
