<?xml version="1.0" standalone="no"?><!DOCTYPE svg PUBLIC "-//W3C//DTD SVG 1.1//EN" "http://www.w3.org/Graphics/SVG/1.1/DTD/svg11.dtd"><svg t="1613974634138" class="icon" viewBox="0 0 1024 1024" version="1.1" xmlns="http://www.w3.org/2000/svg" p-id="2499" xmlns:xlink="http://www.w3.org/1999/xlink" width="32" height="32"><defs><style type="text/css"></style></defs><path d="M682.666667 469.333333h-128V230.826667l33.706666 34.133333a42.666667 42.666667 0 0 0 60.586667 0 42.666667 42.666667 0 0 0 0-60.586667l-106.666667-106.666666a42.666667 42.666667 0 0 0-14.08-8.96 42.666667 42.666667 0 0 0-32.426666 0 42.666667 42.666667 0 0 0-14.08 8.96l-106.666667 106.666666a42.666667 42.666667 0 0 0 60.586667 60.586667l33.706666-34.133333V469.333333H341.333333a42.666667 42.666667 0 0 0 0 85.333334h128v238.506666l-33.706666-34.133333a42.666667 42.666667 0 0 0-60.586667 60.586667l106.666667 106.666666a42.666667 42.666667 0 0 0 14.08 8.96 40.106667 40.106667 0 0 0 32.426666 0 42.666667 42.666667 0 0 0 14.08-8.96l106.666667-106.666666a42.666667 42.666667 0 0 0-60.586667-60.586667l-33.706666 34.133333V554.666667h128a42.666667 42.666667 0 0 0 0-85.333334z" p-id="2500"></path></svg>