<?xml version="1.0" standalone="no"?><!DOCTYPE svg PUBLIC "-//W3C//DTD SVG 1.1//EN" "http://www.w3.org/Graphics/SVG/1.1/DTD/svg11.dtd"><svg t="1626849711257" class="icon" viewBox="0 0 1024 1024" version="1.1" xmlns="http://www.w3.org/2000/svg" p-id="1420" xmlns:xlink="http://www.w3.org/1999/xlink" width="64" height="64"><defs><style type="text/css"></style></defs><path d="M982.31 682.12H608.2q3.21 36.34 4.28 70.55 2.13 43.82 41.68 64.13 16.04 8.55 31 18.17 4.28 3.21 8.02 8.55 3.74 5.35 1.6 9.62t-9.62 4.27H343.11q-4.27 1.07-8.55 0.53-4.27-0.53-5.88-6.41-1.61-5.88 1.6-9.62 3.21-3.74 7.49-5.88l39.55-23.52q29.93-18.17 33.14-54.51l5.34-75.89H38.48Q0 683.18 0 643.63V36.5Q1.07 0.15 36.34 0.15h945.97q29.93-2.13 41.69 23.52v634.92q-11.76 25.66-41.69 23.52z m-7.48-612.48H49.17V607.3h925.66V69.64z m-862.6 380.53v-36.34q0-12.83 12.83-13.9h40.62q13.89 0 13.89 13.9v73.75q0 12.83-13.89 12.83h-39.55q-13.9 1.07-13.9-13.9v-36.34z m193.47-17.1v-52.38q0-14.96 14.97-13.9h38.48q14.96 0 13.89 13.9v106.89q0 12.83-12.82 12.83H319.6q-13.9 1.07-13.9-13.9v-53.44z m-29.93-16.04q1.07 34.21 0 68.41 1.07 8.55-2.67 11.76-3.74 3.21-11.22 3.21H223.4q-14.97 1.07-13.9-12.83V346.49q-1.07-13.9 13.9-13.9h39.55q13.89 0 12.82 14.96v69.48z m598.58-182.78q-61.99 45.96-126.12 94.06V165.84q30.99-1.07 68.93 19.24 37.95 20.31 57.19 49.17zM402.97 401v-84.44q0-10.69 3.75-13.9 3.74-3.21 13.36-3.21h35.27q16.03-1.06 14.96 13.9v174.23q0 13.9-13.89 12.83h-39.55q-13.9 1.07-13.9-13.9V401z m-64.13-105.82q45.96-52.38 95.13-107.96h-38.48q-12.83 2.14-13.89-9.62-1.07-11.76 14.96-12.83h58.79q8.55 0 11.75 3.21 3.2 3.21 3.2 11.76v60.93q1.07 12.82-10.69 12.82-11.75 0-11.75-12.82v-35.28l-95.14 109.03q-6.41 7.48-11.22 7.48-4.81 0-12.29-6.41l-85.51-68.41-8.55 7.48-97.27 91.93q-3.21 3.2-7.48 6.41-8.56 6.41-14.97-2.14-2.14-6.41 0-13.89 2.14-3.21 6.41-6.42l109.03-102.61q6.41-6.41 10.69-6.94 4.28-0.53 11.76 5.88l85.51 68.41zM840.15 480.1q-41.69-65.2-84.44-130.41l130.4-97.27q33.14 52.38 22.45 118.11-10.69 65.74-68.41 109.57zM725.78 178.67v154.99q0 8.55 4.27 14.96l84.45 130.41q-35.28 22.45-82.31 21.92-47.03-0.54-90.32-31.54-43.29-31-59.32-79.64-16.04-48.63-0.54-98.34t55.05-80.7q39.55-31 88.72-32.07z" fill="#333333" p-id="1421"></path></svg>