<svg xmlns="http://www.w3.org/2000/svg" xmlns:xlink="http://www.w3.org/1999/xlink" aria-hidden="true" focusable="false" width="1em" height="1em" style="-ms-transform: rotate(360deg); -webkit-transform: rotate(360deg); transform: rotate(360deg);" preserveAspectRatio="xMidYMid meet" viewBox="0 0 32 32"><path d="M25 4.031c-.766 0-1.516.297-2.094.875L13 14.781l-.219.219l-.062.313l-.688 3.5l-.312 1.468l1.469-.312l3.5-.688l.312-.062l.219-.219l9.875-9.906A2.968 2.968 0 0 0 25 4.03zm0 1.938c.234 0 .465.12.688.343c.445.446.445.93 0 1.375L16 17.376l-1.719.344l.344-1.719l9.688-9.688c.222-.222.453-.343.687-.343zM4 8v20h20V14.812l-2 2V26H6V10h9.188l2-2z" fill="#626262"/></svg>