<?xml version="1.0" standalone="no"?><!DOCTYPE svg PUBLIC "-//W3C//DTD SVG 1.1//EN" "http://www.w3.org/Graphics/SVG/1.1/DTD/svg11.dtd"><svg t="1612536738370" class="icon" viewBox="0 0 1024 1024" version="1.1" xmlns="http://www.w3.org/2000/svg" p-id="3907" xmlns:xlink="http://www.w3.org/1999/xlink" width="32" height="32"><defs><style type="text/css"></style></defs><path d="M370.857143 561.714286l-266.285714 266.285714q-5.714286 5.714286-13.142857 5.714286t-13.142857-5.714286l-28.571429-28.571429q-5.714286-5.714286-5.714286-13.142857t5.714286-13.142857l224.571429-224.571429-224.571429-224.571429q-5.714286-5.714286-5.714286-13.142857t5.714286-13.142857l28.571429-28.571429q5.714286-5.714286 13.142857-5.714286t13.142857 5.714286l266.285714 266.285714q5.714286 5.714286 5.714286 13.142857t-5.714286 13.142857zm616.571429 261.142857l0 36.571429q0 8-5.142857 13.142857t-13.142857 5.142857l-548.571429 0q-8 0-13.142857-5.142857t-5.142857-13.142857l0-36.571429q0-8 5.142857-13.142857t13.142857-5.142857l548.571429 0q8 0 13.142857 5.142857t5.142857 13.142857z" p-id="3908"></path></svg>